SplineFontDB: 3.2
FontName: AlphabetD
FullName: AlphabetD
FamilyName: AlphabetD
Weight: Regular
Copyright: Copyright (c) 2025, 
UComments: "2025-8-15: Created with FontForge (http://fontforge.org)"
Version: 001.000
ItalicAngle: 0
UnderlinePosition: -60
UnderlineWidth: 30
Ascent: 600
Descent: 0
InvalidEm: 0
LayerCount: 2
Layer: 0 0 "Back" 1
Layer: 1 0 "Fore" 0
XUID: [1021 528 -737890285 16270241]
FSType: 0
OS2Version: 0
OS2_WeightWidthSlopeOnly: 0
OS2_UseTypoMetrics: 1
CreationTime: 1755327341
ModificationTime: 1755934494
PfmFamily: 17
TTFWeight: 400
TTFWidth: 5
LineGap: 32
VLineGap: 0
OS2TypoAscent: 0
OS2TypoAOffset: 1
OS2TypoDescent: 0
OS2TypoDOffset: 1
OS2TypoLinegap: 32
OS2WinAscent: 0
OS2WinAOffset: 1
OS2WinDescent: 0
OS2WinDOffset: 1
HheadAscent: 0
HheadAOffset: 1
HheadDescent: 0
HheadDOffset: 1
OS2Vendor: 'PfEd'
Lookup: 1 0 0 "'vert' Vertical Alternates in Latin lookup 0" { "'vert' Vertical Alternates in Latin lookup 0 subtable"  } ['vert' ('latn' <'dflt' > 'DFLT' <'dflt' > ) ]
Lookup: 4 0 0 "'vert' Vertical Alternates in Latin lookup 1" { "'vert' Vertical Alternates in Latin lookup 1 subtable"  } ['vert' ('latn' <'dflt' > 'DFLT' <'dflt' > ) ]
Lookup: 1 0 0 "'vert' Vertical Alternates in Latin lookup 2" { "'vert' Vertical Alternates in Latin lookup 2 subtable"  } ['vert' ('latn' <'dflt' > 'DFLT' <'dflt' > ) ]
Lookup: 6 0 0 "'vert' Vertical Alternates in Latin lookup 3" { "'vert' Vertical Alternates in Latin lookup 3 contextual 0"  "'vert' Vertical Alternates in Latin lookup 3 contextual 1"  "'vert' Vertical Alternates in Latin lookup 3 contextual 2"  } ['vert' ('latn' <'dflt' > 'DFLT' <'dflt' > ) ]
Lookup: 1 0 0 "Single Substitution lookup 4" { "Single Substitution lookup 4 subtable"  } []
Lookup: 1 0 0 "Single Substitution lookup 5" { "Single Substitution lookup 5 subtable"  } []
Lookup: 1 0 0 "Single Substitution lookup 6" { "Single Substitution lookup 6 subtable"  } []

StartChar: _BASE
Encoding: 24 95 0
Width: 1000
Flags: HMW
LayerCount: 2
Fore
SplineSet
475 600 m 25
 525 600 l 25
 525 0 l 25
 475 0 l 29
 475 600 l 25
EndSplineSet
EndChar

StartChar: A
Encoding: 0 65 1
Width: 1000
Flags: HW
LayerCount: 2
Fore
SplineSet
475 600 m 25
 525 600 l 25
 525 0 l 25
 475 0 l 29
 475 600 l 25
EndSplineSet
Substitution2: "'vert' Vertical Alternates in Latin lookup 2 subtable" A.solo
EndChar

StartChar: C
Encoding: 2 67 2
Width: 1000
Flags: HW
LayerCount: 2
Fore
SplineSet
475 600 m 25
 525 600 l 25
 525 0 l 25
 475 0 l 29
 475 600 l 25
EndSplineSet
Substitution2: "'vert' Vertical Alternates in Latin lookup 2 subtable" C.solo
EndChar

StartChar: E
Encoding: 4 69 3
Width: 1000
Flags: HW
LayerCount: 2
Fore
SplineSet
475 600 m 25
 525 600 l 25
 525 0 l 25
 475 0 l 29
 475 600 l 25
EndSplineSet
Substitution2: "'vert' Vertical Alternates in Latin lookup 2 subtable" E.solo
EndChar

StartChar: F
Encoding: 5 70 4
Width: 1000
Flags: HW
LayerCount: 2
Fore
SplineSet
475 600 m 25
 525 600 l 25
 525 0 l 25
 475 0 l 29
 475 600 l 25
EndSplineSet
Substitution2: "'vert' Vertical Alternates in Latin lookup 2 subtable" F.solo
EndChar

StartChar: H
Encoding: 7 72 5
Width: 1000
Flags: HW
LayerCount: 2
Fore
SplineSet
475 600 m 25
 525 600 l 25
 525 0 l 25
 475 0 l 29
 475 600 l 25
EndSplineSet
Substitution2: "'vert' Vertical Alternates in Latin lookup 2 subtable" H.solo
EndChar

StartChar: I
Encoding: 8 73 6
Width: 1000
Flags: HW
LayerCount: 2
Fore
SplineSet
475 600 m 25
 525 600 l 25
 525 0 l 25
 475 0 l 29
 475 600 l 25
EndSplineSet
Substitution2: "'vert' Vertical Alternates in Latin lookup 2 subtable" I.solo
EndChar

StartChar: K
Encoding: 10 75 7
Width: 1000
Flags: HW
LayerCount: 2
Fore
SplineSet
475 600 m 25
 525 600 l 25
 525 0 l 25
 475 0 l 29
 475 600 l 25
EndSplineSet
Substitution2: "'vert' Vertical Alternates in Latin lookup 2 subtable" K.solo
EndChar

StartChar: L
Encoding: 11 76 8
Width: 1000
Flags: HW
LayerCount: 2
Fore
SplineSet
475 600 m 25
 525 600 l 25
 525 0 l 25
 475 0 l 29
 475 600 l 25
EndSplineSet
Substitution2: "'vert' Vertical Alternates in Latin lookup 2 subtable" L.solo
EndChar

StartChar: M
Encoding: 12 77 9
Width: 1000
Flags: HW
LayerCount: 2
Fore
SplineSet
475 600 m 25
 525 600 l 25
 525 0 l 25
 475 0 l 29
 475 600 l 25
EndSplineSet
Substitution2: "'vert' Vertical Alternates in Latin lookup 2 subtable" M.solo
EndChar

StartChar: N
Encoding: 13 78 10
Width: 1000
Flags: HW
LayerCount: 2
Fore
SplineSet
475 600 m 25
 525 600 l 25
 525 0 l 25
 475 0 l 29
 475 600 l 25
EndSplineSet
Substitution2: "'vert' Vertical Alternates in Latin lookup 2 subtable" N.solo
EndChar

StartChar: O
Encoding: 14 79 11
Width: 1000
Flags: HW
LayerCount: 2
Fore
SplineSet
475 600 m 25
 525 600 l 25
 525 0 l 25
 475 0 l 29
 475 600 l 25
EndSplineSet
Substitution2: "'vert' Vertical Alternates in Latin lookup 2 subtable" O.solo
EndChar

StartChar: P
Encoding: 15 80 12
Width: 1000
Flags: HW
LayerCount: 2
Fore
SplineSet
475 600 m 25
 525 600 l 25
 525 0 l 25
 475 0 l 29
 475 600 l 25
EndSplineSet
Substitution2: "'vert' Vertical Alternates in Latin lookup 2 subtable" P.solo
EndChar

StartChar: R
Encoding: 16 82 13
Width: 1000
Flags: HW
LayerCount: 2
Fore
SplineSet
475 600 m 25
 525 600 l 25
 525 0 l 25
 475 0 l 29
 475 600 l 25
EndSplineSet
Substitution2: "'vert' Vertical Alternates in Latin lookup 2 subtable" R.solo
EndChar

StartChar: S
Encoding: 17 83 14
Width: 1000
Flags: HW
LayerCount: 2
Fore
SplineSet
475 600 m 25
 525 600 l 25
 525 0 l 25
 475 0 l 29
 475 600 l 25
EndSplineSet
Substitution2: "'vert' Vertical Alternates in Latin lookup 2 subtable" S.solo
EndChar

StartChar: T
Encoding: 18 84 15
Width: 1000
Flags: HW
LayerCount: 2
Fore
SplineSet
475 600 m 25
 525 600 l 25
 525 0 l 25
 475 0 l 29
 475 600 l 25
EndSplineSet
Substitution2: "'vert' Vertical Alternates in Latin lookup 2 subtable" T.solo
EndChar

StartChar: U
Encoding: 19 85 16
Width: 1000
Flags: HW
LayerCount: 2
Fore
SplineSet
475 600 m 25
 525 600 l 25
 525 0 l 25
 475 0 l 29
 475 600 l 25
EndSplineSet
Substitution2: "'vert' Vertical Alternates in Latin lookup 2 subtable" U.solo
EndChar

StartChar: W
Encoding: 21 87 17
Width: 1000
Flags: HW
LayerCount: 2
Fore
SplineSet
475 600 m 25
 525 600 l 25
 525 0 l 25
 475 0 l 29
 475 600 l 25
EndSplineSet
Substitution2: "'vert' Vertical Alternates in Latin lookup 2 subtable" W.solo
EndChar

StartChar: Y
Encoding: 22 89 18
Width: 1000
Flags: HW
LayerCount: 2
Fore
SplineSet
475 600 m 25
 525 600 l 25
 525 0 l 25
 475 0 l 29
 475 600 l 25
EndSplineSet
Substitution2: "'vert' Vertical Alternates in Latin lookup 2 subtable" Y.solo
EndChar

StartChar: B
Encoding: 1 66 19
Width: 1000
Flags: HW
LayerCount: 2
Fore
SplineSet
475 600 m 25
 525 600 l 25
 525 0 l 25
 475 0 l 29
 475 600 l 25
EndSplineSet
Substitution2: "'vert' Vertical Alternates in Latin lookup 2 subtable" B.solo
EndChar

StartChar: D
Encoding: 3 68 20
Width: 1000
Flags: HW
LayerCount: 2
Fore
SplineSet
475 600 m 25
 525 600 l 25
 525 0 l 25
 475 0 l 29
 475 600 l 25
EndSplineSet
Substitution2: "'vert' Vertical Alternates in Latin lookup 2 subtable" D.solo
EndChar

StartChar: G
Encoding: 6 71 21
Width: 1000
Flags: HW
LayerCount: 2
Fore
SplineSet
475 600 m 25
 525 600 l 25
 525 0 l 25
 475 0 l 29
 475 600 l 25
EndSplineSet
Substitution2: "'vert' Vertical Alternates in Latin lookup 2 subtable" G.solo
EndChar

StartChar: J
Encoding: 9 74 22
Width: 1000
Flags: HW
LayerCount: 2
Fore
SplineSet
475 600 m 25
 525 600 l 25
 525 0 l 25
 475 0 l 29
 475 600 l 25
EndSplineSet
Substitution2: "'vert' Vertical Alternates in Latin lookup 2 subtable" J.solo
EndChar

StartChar: V
Encoding: 20 86 23
Width: 1000
Flags: HW
LayerCount: 2
Fore
SplineSet
475 600 m 25
 525 600 l 25
 525 0 l 25
 475 0 l 29
 475 600 l 25
EndSplineSet
Substitution2: "'vert' Vertical Alternates in Latin lookup 2 subtable" V.solo
EndChar

StartChar: Z
Encoding: 23 90 24
Width: 1000
Flags: HW
LayerCount: 2
Fore
SplineSet
475 600 m 25
 525 600 l 25
 525 0 l 25
 475 0 l 29
 475 600 l 25
EndSplineSet
Substitution2: "'vert' Vertical Alternates in Latin lookup 2 subtable" Z.solo
EndChar

StartChar: Eacute
Encoding: 25 201 25
Width: 1000
Flags: HW
LayerCount: 2
Fore
SplineSet
475 600 m 25
 525 600 l 25
 525 0 l 25
 475 0 l 29
 475 600 l 25
EndSplineSet
EndChar

StartChar: Iacute
Encoding: 26 205 26
Width: 1000
Flags: HW
LayerCount: 2
Fore
SplineSet
475 600 m 25
 525 600 l 25
 525 0 l 25
 475 0 l 29
 475 600 l 25
EndSplineSet
EndChar

StartChar: Oacute
Encoding: 28 211 27
Width: 1000
Flags: HW
LayerCount: 2
Fore
SplineSet
475 600 m 25
 525 600 l 25
 525 0 l 25
 475 0 l 29
 475 600 l 25
EndSplineSet
EndChar

StartChar: Uacute
Encoding: 29 218 28
Width: 1000
Flags: HW
LayerCount: 2
Fore
SplineSet
475 600 m 25
 525 600 l 25
 525 0 l 25
 475 0 l 29
 475 600 l 25
EndSplineSet
EndChar

StartChar: Edh
Encoding: 27 208 29
Width: 1000
Flags: HW
LayerCount: 2
Fore
SplineSet
475 600 m 25
 525 600 l 25
 525 0 l 25
 475 0 l 29
 475 600 l 25
EndSplineSet
EndChar

StartChar: Thorn
Encoding: 30 222 30
Width: 1000
Flags: HW
LayerCount: 2
Fore
SplineSet
475 600 m 25
 525 600 l 25
 525 0 l 25
 475 0 l 29
 475 600 l 25
EndSplineSet
EndChar

StartChar: Eng
Encoding: 31 330 31
Width: 1000
Flags: HW
LayerCount: 2
Fore
SplineSet
475 600 m 25
 525 600 l 25
 525 0 l 25
 475 0 l 29
 475 600 l 25
EndSplineSet
EndChar

StartChar: Esh
Encoding: 32 346 32
Width: 1000
Flags: HW
LayerCount: 2
Fore
SplineSet
475 600 m 25
 525 600 l 25
 525 0 l 25
 475 0 l 29
 475 600 l 25
EndSplineSet
EndChar

StartChar: Zhed
Encoding: 33 377 33
Width: 1000
Flags: HW
LayerCount: 2
Fore
SplineSet
475 600 m 25
 525 600 l 25
 525 0 l 25
 475 0 l 29
 475 600 l 25
EndSplineSet
EndChar

StartChar: Udoubleacute
Encoding: 34 368 34
Width: 1000
Flags: HW
LayerCount: 2
Fore
SplineSet
475 600 m 25
 525 600 l 25
 525 0 l 25
 475 0 l 29
 475 600 l 25
EndSplineSet
EndChar

StartChar: Special
Encoding: 59 59 59
Width: 1000
Flags: HW
LayerCount: 2
Fore
SplineSet
475 600 m 25
 525 600 l 25
 525 0 l 25
 475 0 l 29
 475 600 l 25
EndSplineSet
EndChar

StartChar: Space
Encoding: 60 32 60
Width: 1000
Flags: HW
LayerCount: 2
Fore
SplineSet
475 600 m 25
 525 600 l 25
 525 0 l 25
 475 0 l 29
 475 600 l 25
EndSplineSet
EndChar

StartChar: Stop
Encoding: 61 46 61
Width: 1000
Flags: HW
LayerCount: 2
Fore
SplineSet
475 600 m 25
 525 600 l 25
 525 0 l 25
 475 0 l 29
 475 600 l 25
EndSplineSet
EndChar

StartChar: Comma
Encoding: 62 44 62
Width: 1000
Flags: HW
LayerCount: 2
Fore
SplineSet
475 600 m 25
 525 600 l 25
 525 0 l 25
 475 0 l 29
 475 600 l 25
EndSplineSet
EndChar

StartChar: Question
Encoding: 63 63 63
Width: 1000
Flags: HW
LayerCount: 2
Fore
SplineSet
475 600 m 25
 525 600 l 25
 525 0 l 25
 475 0 l 29
 475 600 l 25
EndSplineSet
EndChar

StartChar: Ellipsis
Encoding: 64 -1 64
Width: 1000
Flags: HW
LayerCount: 2
Fore
SplineSet
475 600 m 25
 525 600 l 25
 525 0 l 25
 475 0 l 29
 475 600 l 25
EndSplineSet
Ligature2: "'vert' Vertical Alternates in Latin lookup 7 subtable" Stop Stop Stop
EndChar

StartChar: Hyphen
Encoding: 65 45 65
Width: 1000
Flags: HW
LayerCount: 2
Fore
SplineSet
475 600 m 25
 525 600 l 25
 525 0 l 25
 475 0 l 29
 475 600 l 25
EndSplineSet
EndChar

StartChar: eacute
Encoding: 66 233 66
Width: 1000
Flags: HW
LayerCount: 2
Fore
SplineSet
475 600 m 25
 525 600 l 25
 525 0 l 25
 475 0 l 29
 475 600 l 25
EndSplineSet
Substitution2: "'vert' Vertical Alternates in Latin lookup 0 subtable" Eacute
EndChar

StartChar: iacute
Encoding: 67 237 67
Width: 1000
Flags: HW
LayerCount: 2
Fore
SplineSet
475 600 m 25
 525 600 l 25
 525 0 l 25
 475 0 l 29
 475 600 l 25
EndSplineSet
Substitution2: "'vert' Vertical Alternates in Latin lookup 0 subtable" Iacute
EndChar

StartChar: edh
Encoding: 68 240 68
Width: 1000
Flags: HW
LayerCount: 2
Fore
SplineSet
475 600 m 25
 525 600 l 25
 525 0 l 25
 475 0 l 29
 475 600 l 25
EndSplineSet
Substitution2: "'vert' Vertical Alternates in Latin lookup 0 subtable" Edh
EndChar

StartChar: oacute
Encoding: 69 243 69
Width: 1000
Flags: HW
LayerCount: 2
Fore
SplineSet
475 600 m 25
 525 600 l 25
 525 0 l 25
 475 0 l 29
 475 600 l 25
EndSplineSet
Substitution2: "'vert' Vertical Alternates in Latin lookup 0 subtable" Oacute
EndChar

StartChar: uacute
Encoding: 70 250 70
Width: 1000
Flags: HW
LayerCount: 2
Fore
SplineSet
475 600 m 25
 525 600 l 25
 525 0 l 25
 475 0 l 29
 475 600 l 25
EndSplineSet
Substitution2: "'vert' Vertical Alternates in Latin lookup 0 subtable" Uacute
EndChar

StartChar: thorn
Encoding: 71 254 71
Width: 1000
Flags: HW
LayerCount: 2
Fore
SplineSet
475 600 m 25
 525 600 l 25
 525 0 l 25
 475 0 l 29
 475 600 l 25
EndSplineSet
Substitution2: "'vert' Vertical Alternates in Latin lookup 0 subtable" Thorn
EndChar

StartChar: eng
Encoding: 72 331 72
Width: 1000
Flags: HW
LayerCount: 2
Fore
SplineSet
475 600 m 25
 525 600 l 25
 525 0 l 25
 475 0 l 29
 475 600 l 25
EndSplineSet
Substitution2: "'vert' Vertical Alternates in Latin lookup 0 subtable" Eng
EndChar

StartChar: esh
Encoding: 73 347 73
Width: 1000
Flags: HW
LayerCount: 2
Fore
SplineSet
475 600 m 25
 525 600 l 25
 525 0 l 25
 475 0 l 29
 475 600 l 25
EndSplineSet
Substitution2: "'vert' Vertical Alternates in Latin lookup 0 subtable" Esh
EndChar

StartChar: zhed
Encoding: 74 378 74
Width: 1000
Flags: HW
LayerCount: 2
Fore
SplineSet
475 600 m 25
 525 600 l 25
 525 0 l 25
 475 0 l 29
 475 600 l 25
EndSplineSet
Substitution2: "'vert' Vertical Alternates in Latin lookup 0 subtable" Zhed
EndChar

StartChar: udoubleacute
Encoding: 75 369 75
Width: 1000
Flags: HW
LayerCount: 2
Fore
SplineSet
475 600 m 25
 525 600 l 25
 525 0 l 25
 475 0 l 29
 475 600 l 25
EndSplineSet
Substitution2: "'vert' Vertical Alternates in Latin lookup 0 subtable" Udoubleacute
EndChar

StartChar: A.solo
Encoding: 76 -1 76
Width: 1000
Flags: HW
LayerCount: 2
Fore
SplineSet
683.299804688 400 m 25
 841.599609375 400 l 25
 841.599609375 200 l 25
 683.299804688 200 l 25
 683.299804688 400 l 25
158.299804688 400 m 25
 316.599609375 400 l 25
 316.599609375 200 l 25
 158.299804688 200 l 25
 158.299804688 400 l 25
475 398 m 25
 525 398 l 25
 525 200 l 25
 475 200 l 29
 475 398 l 25
EndSplineSet
Substitution2: "Single Substitution lookup 6 subtable" A.fina
Substitution2: "Single Substitution lookup 5 subtable" A.init
Substitution2: "Single Substitution lookup 4 subtable" A.medi
EndChar

StartChar: B.solo
Encoding: 77 -1 77
Width: 1000
Flags: HW
LayerCount: 2
Fore
SplineSet
683.299804688 400 m 25
 841.599609375 400 l 25
 841.599609375 200 l 25
 683.299804688 200 l 25
 683.299804688 400 l 25
158.299804688 400 m 25
 316.599609375 400 l 25
 316.599609375 200 l 25
 158.299804688 200 l 25
 158.299804688 400 l 25
475 398 m 25
 525 398 l 25
 525 200 l 25
 475 200 l 29
 475 398 l 25
EndSplineSet
Substitution2: "Single Substitution lookup 6 subtable" B.fina
Substitution2: "Single Substitution lookup 5 subtable" B.init
Substitution2: "Single Substitution lookup 4 subtable" B.medi
EndChar

StartChar: C.solo
Encoding: 78 -1 78
Width: 1000
Flags: HW
LayerCount: 2
Fore
SplineSet
683.299804688 400 m 25
 841.599609375 400 l 25
 841.599609375 200 l 25
 683.299804688 200 l 25
 683.299804688 400 l 25
158.299804688 400 m 25
 316.599609375 400 l 25
 316.599609375 200 l 25
 158.299804688 200 l 25
 158.299804688 400 l 25
475 398 m 25
 525 398 l 25
 525 200 l 25
 475 200 l 29
 475 398 l 25
EndSplineSet
Substitution2: "Single Substitution lookup 6 subtable" C.fina
Substitution2: "Single Substitution lookup 5 subtable" C.init
Substitution2: "Single Substitution lookup 4 subtable" C.medi
EndChar

StartChar: D.solo
Encoding: 79 -1 79
Width: 1000
Flags: HW
LayerCount: 2
Fore
SplineSet
683.299804688 400 m 25
 841.599609375 400 l 25
 841.599609375 200 l 25
 683.299804688 200 l 25
 683.299804688 400 l 25
158.299804688 400 m 25
 316.599609375 400 l 25
 316.599609375 200 l 25
 158.299804688 200 l 25
 158.299804688 400 l 25
475 398 m 25
 525 398 l 25
 525 200 l 25
 475 200 l 29
 475 398 l 25
EndSplineSet
Substitution2: "Single Substitution lookup 6 subtable" D.fina
Substitution2: "Single Substitution lookup 5 subtable" D.init
Substitution2: "Single Substitution lookup 4 subtable" D.medi
EndChar

StartChar: E.solo
Encoding: 80 -1 80
Width: 1000
Flags: HW
LayerCount: 2
Fore
SplineSet
683.299804688 400 m 25
 841.599609375 400 l 25
 841.599609375 200 l 25
 683.299804688 200 l 25
 683.299804688 400 l 25
158.299804688 400 m 25
 316.599609375 400 l 25
 316.599609375 200 l 25
 158.299804688 200 l 25
 158.299804688 400 l 25
475 398 m 25
 525 398 l 25
 525 200 l 25
 475 200 l 29
 475 398 l 25
EndSplineSet
Substitution2: "Single Substitution lookup 6 subtable" E.fina
Substitution2: "Single Substitution lookup 5 subtable" E.init
Substitution2: "Single Substitution lookup 4 subtable" E.medi
EndChar

StartChar: Eacute.solo
Encoding: 81 -1 81
Width: 1000
Flags: HW
LayerCount: 2
Fore
SplineSet
683.299804688 400 m 25
 841.599609375 400 l 25
 841.599609375 200 l 25
 683.299804688 200 l 25
 683.299804688 400 l 25
158.299804688 400 m 25
 316.599609375 400 l 25
 316.599609375 200 l 25
 158.299804688 200 l 25
 158.299804688 400 l 25
475 398 m 25
 525 398 l 25
 525 200 l 25
 475 200 l 29
 475 398 l 25
EndSplineSet
Substitution2: "Single Substitution lookup 6 subtable" Eacute.fina
Substitution2: "Single Substitution lookup 5 subtable" Eacute.init
Substitution2: "Single Substitution lookup 4 subtable" Eacute.medi
Ligature2: "'vert' Vertical Alternates in Latin lookup 1 subtable" E Special
EndChar

StartChar: Edh.solo
Encoding: 82 -1 82
Width: 1000
Flags: HW
LayerCount: 2
Fore
SplineSet
683.299804688 400 m 25
 841.599609375 400 l 25
 841.599609375 200 l 25
 683.299804688 200 l 25
 683.299804688 400 l 25
158.299804688 400 m 25
 316.599609375 400 l 25
 316.599609375 200 l 25
 158.299804688 200 l 25
 158.299804688 400 l 25
475 398 m 25
 525 398 l 25
 525 200 l 25
 475 200 l 29
 475 398 l 25
EndSplineSet
Substitution2: "Single Substitution lookup 6 subtable" Edh.fina
Substitution2: "Single Substitution lookup 5 subtable" Edh.init
Substitution2: "Single Substitution lookup 4 subtable" Edh.medi
Ligature2: "'vert' Vertical Alternates in Latin lookup 1 subtable" D Special
EndChar

StartChar: Eng.solo
Encoding: 83 -1 83
Width: 1000
Flags: HW
LayerCount: 2
Fore
SplineSet
683.299804688 400 m 25
 841.599609375 400 l 25
 841.599609375 200 l 25
 683.299804688 200 l 25
 683.299804688 400 l 25
158.299804688 400 m 25
 316.599609375 400 l 25
 316.599609375 200 l 25
 158.299804688 200 l 25
 158.299804688 400 l 25
475 398 m 25
 525 398 l 25
 525 200 l 25
 475 200 l 29
 475 398 l 25
EndSplineSet
Substitution2: "Single Substitution lookup 6 subtable" Eng.fina
Substitution2: "Single Substitution lookup 5 subtable" Eng.init
Substitution2: "Single Substitution lookup 4 subtable" Eng.medi
Ligature2: "'vert' Vertical Alternates in Latin lookup 1 subtable" N Special
EndChar

StartChar: Esh.solo
Encoding: 84 -1 84
Width: 1000
Flags: HW
LayerCount: 2
Fore
SplineSet
683.299804688 400 m 25
 841.599609375 400 l 25
 841.599609375 200 l 25
 683.299804688 200 l 25
 683.299804688 400 l 25
158.299804688 400 m 25
 316.599609375 400 l 25
 316.599609375 200 l 25
 158.299804688 200 l 25
 158.299804688 400 l 25
475 398 m 25
 525 398 l 25
 525 200 l 25
 475 200 l 29
 475 398 l 25
EndSplineSet
Substitution2: "Single Substitution lookup 6 subtable" Esh.fina
Substitution2: "Single Substitution lookup 5 subtable" Esh.init
Substitution2: "Single Substitution lookup 4 subtable" Esh.medi
Ligature2: "'vert' Vertical Alternates in Latin lookup 1 subtable" S Special
EndChar

StartChar: F.solo
Encoding: 85 -1 85
Width: 1000
Flags: HW
LayerCount: 2
Fore
SplineSet
683.299804688 400 m 25
 841.599609375 400 l 25
 841.599609375 200 l 25
 683.299804688 200 l 25
 683.299804688 400 l 25
158.299804688 400 m 25
 316.599609375 400 l 25
 316.599609375 200 l 25
 158.299804688 200 l 25
 158.299804688 400 l 25
475 398 m 25
 525 398 l 25
 525 200 l 25
 475 200 l 29
 475 398 l 25
EndSplineSet
Substitution2: "Single Substitution lookup 6 subtable" F.fina
Substitution2: "Single Substitution lookup 5 subtable" F.init
Substitution2: "Single Substitution lookup 4 subtable" F.medi
EndChar

StartChar: G.solo
Encoding: 86 -1 86
Width: 1000
Flags: HW
LayerCount: 2
Fore
SplineSet
683.299804688 400 m 25
 841.599609375 400 l 25
 841.599609375 200 l 25
 683.299804688 200 l 25
 683.299804688 400 l 25
158.299804688 400 m 25
 316.599609375 400 l 25
 316.599609375 200 l 25
 158.299804688 200 l 25
 158.299804688 400 l 25
475 398 m 25
 525 398 l 25
 525 200 l 25
 475 200 l 29
 475 398 l 25
EndSplineSet
Substitution2: "Single Substitution lookup 6 subtable" G.fina
Substitution2: "Single Substitution lookup 5 subtable" G.init
Substitution2: "Single Substitution lookup 4 subtable" G.medi
EndChar

StartChar: H.solo
Encoding: 87 -1 87
Width: 1000
Flags: HW
LayerCount: 2
Fore
SplineSet
683.299804688 400 m 25
 841.599609375 400 l 25
 841.599609375 200 l 25
 683.299804688 200 l 25
 683.299804688 400 l 25
158.299804688 400 m 25
 316.599609375 400 l 25
 316.599609375 200 l 25
 158.299804688 200 l 25
 158.299804688 400 l 25
475 398 m 25
 525 398 l 25
 525 200 l 25
 475 200 l 29
 475 398 l 25
EndSplineSet
Substitution2: "Single Substitution lookup 6 subtable" H.fina
Substitution2: "Single Substitution lookup 5 subtable" H.init
Substitution2: "Single Substitution lookup 4 subtable" H.medi
EndChar

StartChar: I.solo
Encoding: 88 -1 88
Width: 1000
Flags: HW
LayerCount: 2
Fore
SplineSet
683.299804688 400 m 25
 841.599609375 400 l 25
 841.599609375 200 l 25
 683.299804688 200 l 25
 683.299804688 400 l 25
158.299804688 400 m 25
 316.599609375 400 l 25
 316.599609375 200 l 25
 158.299804688 200 l 25
 158.299804688 400 l 25
475 398 m 25
 525 398 l 25
 525 200 l 25
 475 200 l 29
 475 398 l 25
EndSplineSet
Substitution2: "Single Substitution lookup 6 subtable" I.fina
Substitution2: "Single Substitution lookup 5 subtable" I.init
Substitution2: "Single Substitution lookup 4 subtable" I.medi
EndChar

StartChar: Iacute.solo
Encoding: 89 -1 89
Width: 1000
Flags: HW
LayerCount: 2
Fore
SplineSet
683.299804688 400 m 25
 841.599609375 400 l 25
 841.599609375 200 l 25
 683.299804688 200 l 25
 683.299804688 400 l 25
158.299804688 400 m 25
 316.599609375 400 l 25
 316.599609375 200 l 25
 158.299804688 200 l 25
 158.299804688 400 l 25
475 398 m 25
 525 398 l 25
 525 200 l 25
 475 200 l 29
 475 398 l 25
EndSplineSet
Substitution2: "Single Substitution lookup 6 subtable" Iacute.fina
Substitution2: "Single Substitution lookup 5 subtable" Iacute.init
Substitution2: "Single Substitution lookup 4 subtable" Iacute.medi
Ligature2: "'vert' Vertical Alternates in Latin lookup 1 subtable" I Special
EndChar

StartChar: J.solo
Encoding: 90 -1 90
Width: 1000
Flags: HW
LayerCount: 2
Fore
SplineSet
683.299804688 400 m 25
 841.599609375 400 l 25
 841.599609375 200 l 25
 683.299804688 200 l 25
 683.299804688 400 l 25
158.299804688 400 m 25
 316.599609375 400 l 25
 316.599609375 200 l 25
 158.299804688 200 l 25
 158.299804688 400 l 25
475 398 m 25
 525 398 l 25
 525 200 l 25
 475 200 l 29
 475 398 l 25
EndSplineSet
Substitution2: "Single Substitution lookup 6 subtable" J.fina
Substitution2: "Single Substitution lookup 5 subtable" J.init
Substitution2: "Single Substitution lookup 4 subtable" J.medi
EndChar

StartChar: K.solo
Encoding: 91 -1 91
Width: 1000
Flags: HW
LayerCount: 2
Fore
SplineSet
683.299804688 400 m 25
 841.599609375 400 l 25
 841.599609375 200 l 25
 683.299804688 200 l 25
 683.299804688 400 l 25
158.299804688 400 m 25
 316.599609375 400 l 25
 316.599609375 200 l 25
 158.299804688 200 l 25
 158.299804688 400 l 25
475 398 m 25
 525 398 l 25
 525 200 l 25
 475 200 l 29
 475 398 l 25
EndSplineSet
Substitution2: "Single Substitution lookup 6 subtable" K.fina
Substitution2: "Single Substitution lookup 5 subtable" K.init
Substitution2: "Single Substitution lookup 4 subtable" K.medi
EndChar

StartChar: L.solo
Encoding: 92 -1 92
Width: 1000
Flags: HW
LayerCount: 2
Fore
SplineSet
683.299804688 400 m 25
 841.599609375 400 l 25
 841.599609375 200 l 25
 683.299804688 200 l 25
 683.299804688 400 l 25
158.299804688 400 m 25
 316.599609375 400 l 25
 316.599609375 200 l 25
 158.299804688 200 l 25
 158.299804688 400 l 25
475 398 m 25
 525 398 l 25
 525 200 l 25
 475 200 l 29
 475 398 l 25
EndSplineSet
Substitution2: "Single Substitution lookup 6 subtable" L.fina
Substitution2: "Single Substitution lookup 5 subtable" L.init
Substitution2: "Single Substitution lookup 4 subtable" L.medi
EndChar

StartChar: M.solo
Encoding: 93 -1 93
Width: 1000
Flags: HW
LayerCount: 2
Fore
SplineSet
683.299804688 400 m 25
 841.599609375 400 l 25
 841.599609375 200 l 25
 683.299804688 200 l 25
 683.299804688 400 l 25
158.299804688 400 m 25
 316.599609375 400 l 25
 316.599609375 200 l 25
 158.299804688 200 l 25
 158.299804688 400 l 25
475 398 m 25
 525 398 l 25
 525 200 l 25
 475 200 l 29
 475 398 l 25
EndSplineSet
Substitution2: "Single Substitution lookup 6 subtable" M.fina
Substitution2: "Single Substitution lookup 5 subtable" M.init
Substitution2: "Single Substitution lookup 4 subtable" M.medi
EndChar

StartChar: N.solo
Encoding: 94 -1 94
Width: 1000
Flags: HW
LayerCount: 2
Fore
SplineSet
683.299804688 400 m 25
 841.599609375 400 l 25
 841.599609375 200 l 25
 683.299804688 200 l 25
 683.299804688 400 l 25
158.299804688 400 m 25
 316.599609375 400 l 25
 316.599609375 200 l 25
 158.299804688 200 l 25
 158.299804688 400 l 25
475 398 m 25
 525 398 l 25
 525 200 l 25
 475 200 l 29
 475 398 l 25
EndSplineSet
Substitution2: "Single Substitution lookup 6 subtable" N.fina
Substitution2: "Single Substitution lookup 5 subtable" N.init
Substitution2: "Single Substitution lookup 4 subtable" N.medi
EndChar

StartChar: O.solo
Encoding: 95 -1 95
Width: 1000
Flags: HW
LayerCount: 2
Fore
SplineSet
683.299804688 400 m 25
 841.599609375 400 l 25
 841.599609375 200 l 25
 683.299804688 200 l 25
 683.299804688 400 l 25
158.299804688 400 m 25
 316.599609375 400 l 25
 316.599609375 200 l 25
 158.299804688 200 l 25
 158.299804688 400 l 25
475 398 m 25
 525 398 l 25
 525 200 l 25
 475 200 l 29
 475 398 l 25
EndSplineSet
Substitution2: "Single Substitution lookup 6 subtable" O.fina
Substitution2: "Single Substitution lookup 5 subtable" O.init
Substitution2: "Single Substitution lookup 4 subtable" O.medi
EndChar

StartChar: Oacute.solo
Encoding: 96 -1 96
Width: 1000
Flags: HW
LayerCount: 2
Fore
SplineSet
683.299804688 400 m 25
 841.599609375 400 l 25
 841.599609375 200 l 25
 683.299804688 200 l 25
 683.299804688 400 l 25
158.299804688 400 m 25
 316.599609375 400 l 25
 316.599609375 200 l 25
 158.299804688 200 l 25
 158.299804688 400 l 25
475 398 m 25
 525 398 l 25
 525 200 l 25
 475 200 l 29
 475 398 l 25
EndSplineSet
Substitution2: "Single Substitution lookup 6 subtable" Oacute.fina
Substitution2: "Single Substitution lookup 5 subtable" Oacute.init
Substitution2: "Single Substitution lookup 4 subtable" Oacute.medi
Ligature2: "'vert' Vertical Alternates in Latin lookup 1 subtable" O Special
EndChar

StartChar: P.solo
Encoding: 97 -1 97
Width: 1000
Flags: HW
LayerCount: 2
Fore
SplineSet
683.299804688 400 m 25
 841.599609375 400 l 25
 841.599609375 200 l 25
 683.299804688 200 l 25
 683.299804688 400 l 25
158.299804688 400 m 25
 316.599609375 400 l 25
 316.599609375 200 l 25
 158.299804688 200 l 25
 158.299804688 400 l 25
475 398 m 25
 525 398 l 25
 525 200 l 25
 475 200 l 29
 475 398 l 25
EndSplineSet
Substitution2: "Single Substitution lookup 6 subtable" P.fina
Substitution2: "Single Substitution lookup 5 subtable" P.init
Substitution2: "Single Substitution lookup 4 subtable" P.medi
EndChar

StartChar: R.solo
Encoding: 98 -1 98
Width: 1000
Flags: HW
LayerCount: 2
Fore
SplineSet
683.299804688 400 m 25
 841.599609375 400 l 25
 841.599609375 200 l 25
 683.299804688 200 l 25
 683.299804688 400 l 25
158.299804688 400 m 25
 316.599609375 400 l 25
 316.599609375 200 l 25
 158.299804688 200 l 25
 158.299804688 400 l 25
475 398 m 25
 525 398 l 25
 525 200 l 25
 475 200 l 29
 475 398 l 25
EndSplineSet
Substitution2: "Single Substitution lookup 6 subtable" R.fina
Substitution2: "Single Substitution lookup 5 subtable" R.init
Substitution2: "Single Substitution lookup 4 subtable" R.medi
EndChar

StartChar: S.solo
Encoding: 99 -1 99
Width: 1000
Flags: HW
LayerCount: 2
Fore
SplineSet
683.299804688 400 m 25
 841.599609375 400 l 25
 841.599609375 200 l 25
 683.299804688 200 l 25
 683.299804688 400 l 25
158.299804688 400 m 25
 316.599609375 400 l 25
 316.599609375 200 l 25
 158.299804688 200 l 25
 158.299804688 400 l 25
475 398 m 25
 525 398 l 25
 525 200 l 25
 475 200 l 29
 475 398 l 25
EndSplineSet
Substitution2: "Single Substitution lookup 6 subtable" S.fina
Substitution2: "Single Substitution lookup 5 subtable" S.init
Substitution2: "Single Substitution lookup 4 subtable" S.medi
EndChar

StartChar: T.solo
Encoding: 100 -1 100
Width: 1000
Flags: HW
LayerCount: 2
Fore
SplineSet
683.299804688 400 m 25
 841.599609375 400 l 25
 841.599609375 200 l 25
 683.299804688 200 l 25
 683.299804688 400 l 25
158.299804688 400 m 25
 316.599609375 400 l 25
 316.599609375 200 l 25
 158.299804688 200 l 25
 158.299804688 400 l 25
475 398 m 25
 525 398 l 25
 525 200 l 25
 475 200 l 29
 475 398 l 25
EndSplineSet
Substitution2: "Single Substitution lookup 6 subtable" T.fina
Substitution2: "Single Substitution lookup 5 subtable" T.init
Substitution2: "Single Substitution lookup 4 subtable" T.medi
EndChar

StartChar: Thorn.solo
Encoding: 101 -1 101
Width: 1000
Flags: HW
LayerCount: 2
Fore
SplineSet
683.299804688 400 m 25
 841.599609375 400 l 25
 841.599609375 200 l 25
 683.299804688 200 l 25
 683.299804688 400 l 25
158.299804688 400 m 25
 316.599609375 400 l 25
 316.599609375 200 l 25
 158.299804688 200 l 25
 158.299804688 400 l 25
475 398 m 25
 525 398 l 25
 525 200 l 25
 475 200 l 29
 475 398 l 25
EndSplineSet
Substitution2: "Single Substitution lookup 6 subtable" Thorn.fina
Substitution2: "Single Substitution lookup 5 subtable" Thorn.init
Substitution2: "Single Substitution lookup 4 subtable" Thorn.medi
Ligature2: "'vert' Vertical Alternates in Latin lookup 1 subtable" T Special
EndChar

StartChar: U.solo
Encoding: 102 -1 102
Width: 1000
Flags: HW
LayerCount: 2
Fore
SplineSet
683.299804688 400 m 25
 841.599609375 400 l 25
 841.599609375 200 l 25
 683.299804688 200 l 25
 683.299804688 400 l 25
158.299804688 400 m 25
 316.599609375 400 l 25
 316.599609375 200 l 25
 158.299804688 200 l 25
 158.299804688 400 l 25
475 398 m 25
 525 398 l 25
 525 200 l 25
 475 200 l 29
 475 398 l 25
EndSplineSet
Substitution2: "Single Substitution lookup 6 subtable" U.fina
Substitution2: "Single Substitution lookup 5 subtable" U.init
Substitution2: "Single Substitution lookup 4 subtable" U.medi
EndChar

StartChar: Uacute.solo
Encoding: 103 -1 103
Width: 1000
Flags: HW
LayerCount: 2
Fore
SplineSet
683.299804688 400 m 25
 841.599609375 400 l 25
 841.599609375 200 l 25
 683.299804688 200 l 25
 683.299804688 400 l 25
158.299804688 400 m 25
 316.599609375 400 l 25
 316.599609375 200 l 25
 158.299804688 200 l 25
 158.299804688 400 l 25
475 398 m 25
 525 398 l 25
 525 200 l 25
 475 200 l 29
 475 398 l 25
EndSplineSet
Substitution2: "Single Substitution lookup 6 subtable" Uacute.fina
Substitution2: "Single Substitution lookup 5 subtable" Uacute.init
Substitution2: "Single Substitution lookup 4 subtable" Uacute.medi
Ligature2: "'vert' Vertical Alternates in Latin lookup 1 subtable" U Special
EndChar

StartChar: Udoubleacute.solo
Encoding: 104 -1 104
Width: 1000
Flags: HW
LayerCount: 2
Fore
SplineSet
683.299804688 400 m 25
 841.599609375 400 l 25
 841.599609375 200 l 25
 683.299804688 200 l 25
 683.299804688 400 l 25
158.299804688 400 m 25
 316.599609375 400 l 25
 316.599609375 200 l 25
 158.299804688 200 l 25
 158.299804688 400 l 25
475 398 m 25
 525 398 l 25
 525 200 l 25
 475 200 l 29
 475 398 l 25
EndSplineSet
Substitution2: "Single Substitution lookup 6 subtable" Udoubleacute.fina
Substitution2: "Single Substitution lookup 5 subtable" Udoubleacute.init
Substitution2: "Single Substitution lookup 4 subtable" Udoubleacute.medi
Ligature2: "'vert' Vertical Alternates in Latin lookup 1 subtable" U Special Special
EndChar

StartChar: V.solo
Encoding: 105 -1 105
Width: 1000
Flags: HW
LayerCount: 2
Fore
SplineSet
683.299804688 400 m 25
 841.599609375 400 l 25
 841.599609375 200 l 25
 683.299804688 200 l 25
 683.299804688 400 l 25
158.299804688 400 m 25
 316.599609375 400 l 25
 316.599609375 200 l 25
 158.299804688 200 l 25
 158.299804688 400 l 25
475 398 m 25
 525 398 l 25
 525 200 l 25
 475 200 l 29
 475 398 l 25
EndSplineSet
Substitution2: "Single Substitution lookup 6 subtable" V.fina
Substitution2: "Single Substitution lookup 5 subtable" V.init
Substitution2: "Single Substitution lookup 4 subtable" V.medi
EndChar

StartChar: W.solo
Encoding: 106 -1 106
Width: 1000
Flags: HW
LayerCount: 2
Fore
SplineSet
683.299804688 400 m 25
 841.599609375 400 l 25
 841.599609375 200 l 25
 683.299804688 200 l 25
 683.299804688 400 l 25
158.299804688 400 m 25
 316.599609375 400 l 25
 316.599609375 200 l 25
 158.299804688 200 l 25
 158.299804688 400 l 25
475 398 m 25
 525 398 l 25
 525 200 l 25
 475 200 l 29
 475 398 l 25
EndSplineSet
Substitution2: "Single Substitution lookup 6 subtable" W.fina
Substitution2: "Single Substitution lookup 5 subtable" W.init
Substitution2: "Single Substitution lookup 4 subtable" W.medi
EndChar

StartChar: Y.solo
Encoding: 107 -1 107
Width: 1000
Flags: HW
LayerCount: 2
Fore
SplineSet
683.299804688 400 m 25
 841.599609375 400 l 25
 841.599609375 200 l 25
 683.299804688 200 l 25
 683.299804688 400 l 25
158.299804688 400 m 25
 316.599609375 400 l 25
 316.599609375 200 l 25
 158.299804688 200 l 25
 158.299804688 400 l 25
475 398 m 25
 525 398 l 25
 525 200 l 25
 475 200 l 29
 475 398 l 25
EndSplineSet
Substitution2: "Single Substitution lookup 6 subtable" Y.fina
Substitution2: "Single Substitution lookup 5 subtable" Y.init
Substitution2: "Single Substitution lookup 4 subtable" Y.medi
EndChar

StartChar: Z.solo
Encoding: 108 -1 108
Width: 1000
Flags: HW
LayerCount: 2
Fore
SplineSet
683.299804688 400 m 25
 841.599609375 400 l 25
 841.599609375 200 l 25
 683.299804688 200 l 25
 683.299804688 400 l 25
158.299804688 400 m 25
 316.599609375 400 l 25
 316.599609375 200 l 25
 158.299804688 200 l 25
 158.299804688 400 l 25
475 398 m 25
 525 398 l 25
 525 200 l 25
 475 200 l 29
 475 398 l 25
EndSplineSet
Substitution2: "Single Substitution lookup 6 subtable" Z.fina
Substitution2: "Single Substitution lookup 5 subtable" Z.init
Substitution2: "Single Substitution lookup 4 subtable" Z.medi
EndChar

StartChar: Zhed.solo
Encoding: 109 -1 109
Width: 1000
Flags: HW
LayerCount: 2
Fore
SplineSet
683.299804688 400 m 25
 841.599609375 400 l 25
 841.599609375 200 l 25
 683.299804688 200 l 25
 683.299804688 400 l 25
158.299804688 400 m 25
 316.599609375 400 l 25
 316.599609375 200 l 25
 158.299804688 200 l 25
 158.299804688 400 l 25
475 398 m 25
 525 398 l 25
 525 200 l 25
 475 200 l 29
 475 398 l 25
EndSplineSet
Substitution2: "Single Substitution lookup 6 subtable" Zhed.fina
Substitution2: "Single Substitution lookup 5 subtable" Zhed.init
Substitution2: "Single Substitution lookup 4 subtable" Zhed.medi
Ligature2: "'vert' Vertical Alternates in Latin lookup 1 subtable" Z Special
EndChar

StartChar: _.solo
Encoding: 110 -1 110
Width: 1000
Flags: HW
LayerCount: 2
Fore
SplineSet
475 398 m 25
 525 398 l 25
 525 200 l 25
 475 200 l 29
 475 398 l 25
683.3 400 m 25
 841.6 400 l 25
 841.6 200 l 25
 683.3 200 l 25
 683.3 400 l 25
158.3 400 m 25
 316.6 400 l 25
 316.6 200 l 25
 158.3 200 l 25
 158.3 400 l 25
EndSplineSet
EndChar

StartChar: _.init
Encoding: 111 -1 111
Width: 1000
Flags: HW
LayerCount: 2
Fore
SplineSet
475 400 m 25
 525 400 l 25
 525 0 l 25
 475 0 l 29
 475 400 l 25
525 400 m 25
 841.6 400 l 25
 841.6 200 l 25
 525 200 l 25
 525 400 l 25
EndSplineSet
EndChar

StartChar: _.medi
Encoding: 112 -1 112
Width: 1000
Flags: HW
LayerCount: 2
Fore
SplineSet
475 600 m 25
 525 600 l 25
 525 0 l 25
 475 0 l 29
 475 600 l 25
525 400 m 29
 841.6 400 l 25
 841.6 200 l 25
 525 200 l 25
 525 400 l 29
158.3 400 m 25
 475 400 l 25
 475 200 l 25
 158.3 200 l 25
 158.3 400 l 25
EndSplineSet
EndChar

StartChar: _.fina
Encoding: 113 -1 113
Width: 1000
Flags: HW
LayerCount: 2
Fore
SplineSet
475 600 m 25
 525 600 l 25
 525 200 l 25
 475 200 l 29
 475 600 l 25
158.3 400 m 25
 475 400 l 25
 475 200 l 25
 158.3 200 l 25
 158.3 400 l 25
EndSplineSet
EndChar

StartChar: A.medi
Encoding: 114 -1 114
Width: 1000
Flags: HW
LayerCount: 2
Fore
SplineSet
525 400 m 29
 841.599609375 400 l 25
 841.599609375 200 l 25
 525 200 l 25
 525 400 l 29
158.299804688 400 m 25
 475 400 l 25
 475 200 l 25
 158.299804688 200 l 25
 158.299804688 400 l 25
475 600 m 25
 525 600 l 25
 525 0 l 25
 475 0 l 29
 475 600 l 25
EndSplineSet
EndChar

StartChar: B.medi
Encoding: 115 -1 115
Width: 1000
Flags: HW
LayerCount: 2
Fore
SplineSet
525 400 m 29
 841.599609375 400 l 25
 841.599609375 200 l 25
 525 200 l 25
 525 400 l 29
158.299804688 400 m 25
 475 400 l 25
 475 200 l 25
 158.299804688 200 l 25
 158.299804688 400 l 25
475 600 m 25
 525 600 l 25
 525 0 l 25
 475 0 l 29
 475 600 l 25
EndSplineSet
EndChar

StartChar: C.medi
Encoding: 116 -1 116
Width: 1000
Flags: HW
LayerCount: 2
Fore
SplineSet
525 400 m 29
 841.599609375 400 l 25
 841.599609375 200 l 25
 525 200 l 25
 525 400 l 29
158.299804688 400 m 25
 475 400 l 25
 475 200 l 25
 158.299804688 200 l 25
 158.299804688 400 l 25
475 600 m 25
 525 600 l 25
 525 0 l 25
 475 0 l 29
 475 600 l 25
EndSplineSet
EndChar

StartChar: D.medi
Encoding: 117 -1 117
Width: 1000
Flags: HW
LayerCount: 2
Fore
SplineSet
525 400 m 29
 841.599609375 400 l 25
 841.599609375 200 l 25
 525 200 l 25
 525 400 l 29
158.299804688 400 m 25
 475 400 l 25
 475 200 l 25
 158.299804688 200 l 25
 158.299804688 400 l 25
475 600 m 25
 525 600 l 25
 525 0 l 25
 475 0 l 29
 475 600 l 25
EndSplineSet
EndChar

StartChar: E.medi
Encoding: 118 -1 118
Width: 1000
Flags: HW
LayerCount: 2
Fore
SplineSet
525 400 m 29
 841.599609375 400 l 25
 841.599609375 200 l 25
 525 200 l 25
 525 400 l 29
158.299804688 400 m 25
 475 400 l 25
 475 200 l 25
 158.299804688 200 l 25
 158.299804688 400 l 25
475 600 m 25
 525 600 l 25
 525 0 l 25
 475 0 l 29
 475 600 l 25
EndSplineSet
EndChar

StartChar: Eacute.medi
Encoding: 119 -1 119
Width: 1000
Flags: HW
LayerCount: 2
Fore
SplineSet
525 400 m 29
 841.599609375 400 l 25
 841.599609375 200 l 25
 525 200 l 25
 525 400 l 29
158.299804688 400 m 25
 475 400 l 25
 475 200 l 25
 158.299804688 200 l 25
 158.299804688 400 l 25
475 600 m 25
 525 600 l 25
 525 0 l 25
 475 0 l 29
 475 600 l 25
EndSplineSet
EndChar

StartChar: Edh.medi
Encoding: 120 -1 120
Width: 1000
Flags: HW
LayerCount: 2
Fore
SplineSet
525 400 m 29
 841.599609375 400 l 25
 841.599609375 200 l 25
 525 200 l 25
 525 400 l 29
158.299804688 400 m 25
 475 400 l 25
 475 200 l 25
 158.299804688 200 l 25
 158.299804688 400 l 25
475 600 m 25
 525 600 l 25
 525 0 l 25
 475 0 l 29
 475 600 l 25
EndSplineSet
EndChar

StartChar: Eng.medi
Encoding: 121 -1 121
Width: 1000
Flags: HW
LayerCount: 2
Fore
SplineSet
525 400 m 29
 841.599609375 400 l 25
 841.599609375 200 l 25
 525 200 l 25
 525 400 l 29
158.299804688 400 m 25
 475 400 l 25
 475 200 l 25
 158.299804688 200 l 25
 158.299804688 400 l 25
475 600 m 25
 525 600 l 25
 525 0 l 25
 475 0 l 29
 475 600 l 25
EndSplineSet
EndChar

StartChar: Esh.medi
Encoding: 122 -1 122
Width: 1000
Flags: HW
LayerCount: 2
Fore
SplineSet
525 400 m 29
 841.599609375 400 l 25
 841.599609375 200 l 25
 525 200 l 25
 525 400 l 29
158.299804688 400 m 25
 475 400 l 25
 475 200 l 25
 158.299804688 200 l 25
 158.299804688 400 l 25
475 600 m 25
 525 600 l 25
 525 0 l 25
 475 0 l 29
 475 600 l 25
EndSplineSet
EndChar

StartChar: F.medi
Encoding: 123 -1 123
Width: 1000
Flags: HW
LayerCount: 2
Fore
SplineSet
525 400 m 29
 841.599609375 400 l 25
 841.599609375 200 l 25
 525 200 l 25
 525 400 l 29
158.299804688 400 m 25
 475 400 l 25
 475 200 l 25
 158.299804688 200 l 25
 158.299804688 400 l 25
475 600 m 25
 525 600 l 25
 525 0 l 25
 475 0 l 29
 475 600 l 25
EndSplineSet
EndChar

StartChar: G.medi
Encoding: 124 -1 124
Width: 1000
Flags: HW
LayerCount: 2
Fore
SplineSet
525 400 m 29
 841.599609375 400 l 25
 841.599609375 200 l 25
 525 200 l 25
 525 400 l 29
158.299804688 400 m 25
 475 400 l 25
 475 200 l 25
 158.299804688 200 l 25
 158.299804688 400 l 25
475 600 m 25
 525 600 l 25
 525 0 l 25
 475 0 l 29
 475 600 l 25
EndSplineSet
EndChar

StartChar: H.medi
Encoding: 125 -1 125
Width: 1000
Flags: HW
LayerCount: 2
Fore
SplineSet
525 400 m 29
 841.599609375 400 l 25
 841.599609375 200 l 25
 525 200 l 25
 525 400 l 29
158.299804688 400 m 25
 475 400 l 25
 475 200 l 25
 158.299804688 200 l 25
 158.299804688 400 l 25
475 600 m 25
 525 600 l 25
 525 0 l 25
 475 0 l 29
 475 600 l 25
EndSplineSet
EndChar

StartChar: I.medi
Encoding: 126 -1 126
Width: 1000
Flags: HW
LayerCount: 2
Fore
SplineSet
525 400 m 29
 841.599609375 400 l 25
 841.599609375 200 l 25
 525 200 l 25
 525 400 l 29
158.299804688 400 m 25
 475 400 l 25
 475 200 l 25
 158.299804688 200 l 25
 158.299804688 400 l 25
475 600 m 25
 525 600 l 25
 525 0 l 25
 475 0 l 29
 475 600 l 25
EndSplineSet
EndChar

StartChar: Iacute.medi
Encoding: 127 -1 127
Width: 1000
Flags: HW
LayerCount: 2
Fore
SplineSet
525 400 m 29
 841.599609375 400 l 25
 841.599609375 200 l 25
 525 200 l 25
 525 400 l 29
158.299804688 400 m 25
 475 400 l 25
 475 200 l 25
 158.299804688 200 l 25
 158.299804688 400 l 25
475 600 m 25
 525 600 l 25
 525 0 l 25
 475 0 l 29
 475 600 l 25
EndSplineSet
EndChar

StartChar: J.medi
Encoding: 128 -1 128
Width: 1000
Flags: HW
LayerCount: 2
Fore
SplineSet
525 400 m 29
 841.599609375 400 l 25
 841.599609375 200 l 25
 525 200 l 25
 525 400 l 29
158.299804688 400 m 25
 475 400 l 25
 475 200 l 25
 158.299804688 200 l 25
 158.299804688 400 l 25
475 600 m 25
 525 600 l 25
 525 0 l 25
 475 0 l 29
 475 600 l 25
EndSplineSet
EndChar

StartChar: K.medi
Encoding: 129 -1 129
Width: 1000
Flags: HW
LayerCount: 2
Fore
SplineSet
525 400 m 29
 841.599609375 400 l 25
 841.599609375 200 l 25
 525 200 l 25
 525 400 l 29
158.299804688 400 m 25
 475 400 l 25
 475 200 l 25
 158.299804688 200 l 25
 158.299804688 400 l 25
475 600 m 25
 525 600 l 25
 525 0 l 25
 475 0 l 29
 475 600 l 25
EndSplineSet
EndChar

StartChar: L.medi
Encoding: 130 -1 130
Width: 1000
Flags: HW
LayerCount: 2
Fore
SplineSet
525 400 m 29
 841.599609375 400 l 25
 841.599609375 200 l 25
 525 200 l 25
 525 400 l 29
158.299804688 400 m 25
 475 400 l 25
 475 200 l 25
 158.299804688 200 l 25
 158.299804688 400 l 25
475 600 m 25
 525 600 l 25
 525 0 l 25
 475 0 l 29
 475 600 l 25
EndSplineSet
EndChar

StartChar: M.medi
Encoding: 131 -1 131
Width: 1000
Flags: HW
LayerCount: 2
Fore
SplineSet
525 400 m 29
 841.599609375 400 l 25
 841.599609375 200 l 25
 525 200 l 25
 525 400 l 29
158.299804688 400 m 25
 475 400 l 25
 475 200 l 25
 158.299804688 200 l 25
 158.299804688 400 l 25
475 600 m 25
 525 600 l 25
 525 0 l 25
 475 0 l 29
 475 600 l 25
EndSplineSet
EndChar

StartChar: N.medi
Encoding: 132 -1 132
Width: 1000
Flags: HW
LayerCount: 2
Fore
SplineSet
525 400 m 29
 841.599609375 400 l 25
 841.599609375 200 l 25
 525 200 l 25
 525 400 l 29
158.299804688 400 m 25
 475 400 l 25
 475 200 l 25
 158.299804688 200 l 25
 158.299804688 400 l 25
475 600 m 25
 525 600 l 25
 525 0 l 25
 475 0 l 29
 475 600 l 25
EndSplineSet
EndChar

StartChar: O.medi
Encoding: 133 -1 133
Width: 1000
Flags: HW
LayerCount: 2
Fore
SplineSet
525 400 m 29
 841.599609375 400 l 25
 841.599609375 200 l 25
 525 200 l 25
 525 400 l 29
158.299804688 400 m 25
 475 400 l 25
 475 200 l 25
 158.299804688 200 l 25
 158.299804688 400 l 25
475 600 m 25
 525 600 l 25
 525 0 l 25
 475 0 l 29
 475 600 l 25
EndSplineSet
EndChar

StartChar: Oacute.medi
Encoding: 134 -1 134
Width: 1000
Flags: HW
LayerCount: 2
Fore
SplineSet
525 400 m 29
 841.599609375 400 l 25
 841.599609375 200 l 25
 525 200 l 25
 525 400 l 29
158.299804688 400 m 25
 475 400 l 25
 475 200 l 25
 158.299804688 200 l 25
 158.299804688 400 l 25
475 600 m 25
 525 600 l 25
 525 0 l 25
 475 0 l 29
 475 600 l 25
EndSplineSet
EndChar

StartChar: P.medi
Encoding: 135 -1 135
Width: 1000
Flags: HW
LayerCount: 2
Fore
SplineSet
525 400 m 29
 841.599609375 400 l 25
 841.599609375 200 l 25
 525 200 l 25
 525 400 l 29
158.299804688 400 m 25
 475 400 l 25
 475 200 l 25
 158.299804688 200 l 25
 158.299804688 400 l 25
475 600 m 25
 525 600 l 25
 525 0 l 25
 475 0 l 29
 475 600 l 25
EndSplineSet
EndChar

StartChar: R.medi
Encoding: 136 -1 136
Width: 1000
Flags: HW
LayerCount: 2
Fore
SplineSet
525 400 m 29
 841.599609375 400 l 25
 841.599609375 200 l 25
 525 200 l 25
 525 400 l 29
158.299804688 400 m 25
 475 400 l 25
 475 200 l 25
 158.299804688 200 l 25
 158.299804688 400 l 25
475 600 m 25
 525 600 l 25
 525 0 l 25
 475 0 l 29
 475 600 l 25
EndSplineSet
EndChar

StartChar: S.medi
Encoding: 137 -1 137
Width: 1000
Flags: HW
LayerCount: 2
Fore
SplineSet
525 400 m 29
 841.599609375 400 l 25
 841.599609375 200 l 25
 525 200 l 25
 525 400 l 29
158.299804688 400 m 25
 475 400 l 25
 475 200 l 25
 158.299804688 200 l 25
 158.299804688 400 l 25
475 600 m 25
 525 600 l 25
 525 0 l 25
 475 0 l 29
 475 600 l 25
EndSplineSet
EndChar

StartChar: T.medi
Encoding: 138 -1 138
Width: 1000
Flags: HW
LayerCount: 2
Fore
SplineSet
525 400 m 29
 841.599609375 400 l 25
 841.599609375 200 l 25
 525 200 l 25
 525 400 l 29
158.299804688 400 m 25
 475 400 l 25
 475 200 l 25
 158.299804688 200 l 25
 158.299804688 400 l 25
475 600 m 25
 525 600 l 25
 525 0 l 25
 475 0 l 29
 475 600 l 25
EndSplineSet
EndChar

StartChar: Thorn.medi
Encoding: 139 -1 139
Width: 1000
Flags: HW
LayerCount: 2
Fore
SplineSet
525 400 m 29
 841.599609375 400 l 25
 841.599609375 200 l 25
 525 200 l 25
 525 400 l 29
158.299804688 400 m 25
 475 400 l 25
 475 200 l 25
 158.299804688 200 l 25
 158.299804688 400 l 25
475 600 m 25
 525 600 l 25
 525 0 l 25
 475 0 l 29
 475 600 l 25
EndSplineSet
EndChar

StartChar: U.medi
Encoding: 140 -1 140
Width: 1000
Flags: HW
LayerCount: 2
Fore
SplineSet
525 400 m 29
 841.599609375 400 l 25
 841.599609375 200 l 25
 525 200 l 25
 525 400 l 29
158.299804688 400 m 25
 475 400 l 25
 475 200 l 25
 158.299804688 200 l 25
 158.299804688 400 l 25
475 600 m 25
 525 600 l 25
 525 0 l 25
 475 0 l 29
 475 600 l 25
EndSplineSet
EndChar

StartChar: Uacute.medi
Encoding: 141 -1 141
Width: 1000
Flags: HW
LayerCount: 2
Fore
SplineSet
525 400 m 29
 841.599609375 400 l 25
 841.599609375 200 l 25
 525 200 l 25
 525 400 l 29
158.299804688 400 m 25
 475 400 l 25
 475 200 l 25
 158.299804688 200 l 25
 158.299804688 400 l 25
475 600 m 25
 525 600 l 25
 525 0 l 25
 475 0 l 29
 475 600 l 25
EndSplineSet
EndChar

StartChar: Udoubleacute.medi
Encoding: 142 -1 142
Width: 1000
Flags: HW
LayerCount: 2
Fore
SplineSet
525 400 m 29
 841.599609375 400 l 25
 841.599609375 200 l 25
 525 200 l 25
 525 400 l 29
158.299804688 400 m 25
 475 400 l 25
 475 200 l 25
 158.299804688 200 l 25
 158.299804688 400 l 25
475 600 m 25
 525 600 l 25
 525 0 l 25
 475 0 l 29
 475 600 l 25
EndSplineSet
EndChar

StartChar: V.medi
Encoding: 143 -1 143
Width: 1000
Flags: HW
LayerCount: 2
Fore
SplineSet
525 400 m 29
 841.599609375 400 l 25
 841.599609375 200 l 25
 525 200 l 25
 525 400 l 29
158.299804688 400 m 25
 475 400 l 25
 475 200 l 25
 158.299804688 200 l 25
 158.299804688 400 l 25
475 600 m 25
 525 600 l 25
 525 0 l 25
 475 0 l 29
 475 600 l 25
EndSplineSet
EndChar

StartChar: W.medi
Encoding: 144 -1 144
Width: 1000
Flags: HW
LayerCount: 2
Fore
SplineSet
525 400 m 29
 841.599609375 400 l 25
 841.599609375 200 l 25
 525 200 l 25
 525 400 l 29
158.299804688 400 m 25
 475 400 l 25
 475 200 l 25
 158.299804688 200 l 25
 158.299804688 400 l 25
475 600 m 25
 525 600 l 25
 525 0 l 25
 475 0 l 29
 475 600 l 25
EndSplineSet
EndChar

StartChar: Y.medi
Encoding: 145 -1 145
Width: 1000
Flags: HW
LayerCount: 2
Fore
SplineSet
525 400 m 29
 841.599609375 400 l 25
 841.599609375 200 l 25
 525 200 l 25
 525 400 l 29
158.299804688 400 m 25
 475 400 l 25
 475 200 l 25
 158.299804688 200 l 25
 158.299804688 400 l 25
475 600 m 25
 525 600 l 25
 525 0 l 25
 475 0 l 29
 475 600 l 25
EndSplineSet
EndChar

StartChar: Z.medi
Encoding: 146 -1 146
Width: 1000
Flags: HW
LayerCount: 2
Fore
SplineSet
525 400 m 29
 841.599609375 400 l 25
 841.599609375 200 l 25
 525 200 l 25
 525 400 l 29
158.299804688 400 m 25
 475 400 l 25
 475 200 l 25
 158.299804688 200 l 25
 158.299804688 400 l 25
475 600 m 25
 525 600 l 25
 525 0 l 25
 475 0 l 29
 475 600 l 25
EndSplineSet
EndChar

StartChar: Zhed.medi
Encoding: 147 -1 147
Width: 1000
Flags: HW
LayerCount: 2
Fore
SplineSet
525 400 m 29
 841.599609375 400 l 25
 841.599609375 200 l 25
 525 200 l 25
 525 400 l 29
158.299804688 400 m 25
 475 400 l 25
 475 200 l 25
 158.299804688 200 l 25
 158.299804688 400 l 25
475 600 m 25
 525 600 l 25
 525 0 l 25
 475 0 l 29
 475 600 l 25
EndSplineSet
EndChar

StartChar: A.init
Encoding: 148 -1 148
Width: 1000
Flags: HW
LayerCount: 2
Fore
SplineSet
525 400 m 25
 841.599609375 400 l 25
 841.599609375 200 l 25
 525 200 l 25
 525 400 l 25
475 400 m 25
 525 400 l 25
 525 0 l 25
 475 0 l 29
 475 400 l 25
EndSplineSet
EndChar

StartChar: B.init
Encoding: 149 -1 149
Width: 1000
Flags: HW
LayerCount: 2
Fore
SplineSet
525 400 m 25
 841.599609375 400 l 25
 841.599609375 200 l 25
 525 200 l 25
 525 400 l 25
475 400 m 25
 525 400 l 25
 525 0 l 25
 475 0 l 29
 475 400 l 25
EndSplineSet
EndChar

StartChar: C.init
Encoding: 150 -1 150
Width: 1000
Flags: HW
LayerCount: 2
Fore
SplineSet
525 400 m 25
 841.599609375 400 l 25
 841.599609375 200 l 25
 525 200 l 25
 525 400 l 25
475 400 m 25
 525 400 l 25
 525 0 l 25
 475 0 l 29
 475 400 l 25
EndSplineSet
EndChar

StartChar: Edh.init
Encoding: 151 -1 151
Width: 1000
Flags: HW
LayerCount: 2
Fore
SplineSet
525 400 m 25
 841.599609375 400 l 25
 841.599609375 200 l 25
 525 200 l 25
 525 400 l 25
475 400 m 25
 525 400 l 25
 525 0 l 25
 475 0 l 29
 475 400 l 25
EndSplineSet
EndChar

StartChar: D.init
Encoding: 152 -1 152
Width: 1000
Flags: HW
LayerCount: 2
Fore
SplineSet
525 400 m 25
 841.599609375 400 l 25
 841.599609375 200 l 25
 525 200 l 25
 525 400 l 25
475 400 m 25
 525 400 l 25
 525 0 l 25
 475 0 l 29
 475 400 l 25
EndSplineSet
EndChar

StartChar: Eacute.init
Encoding: 153 -1 153
Width: 1000
Flags: HW
LayerCount: 2
Fore
SplineSet
525 400 m 25
 841.599609375 400 l 25
 841.599609375 200 l 25
 525 200 l 25
 525 400 l 25
475 400 m 25
 525 400 l 25
 525 0 l 25
 475 0 l 29
 475 400 l 25
EndSplineSet
EndChar

StartChar: E.init
Encoding: 154 -1 154
Width: 1000
Flags: HW
LayerCount: 2
Fore
SplineSet
525 400 m 25
 841.599609375 400 l 25
 841.599609375 200 l 25
 525 200 l 25
 525 400 l 25
475 400 m 25
 525 400 l 25
 525 0 l 25
 475 0 l 29
 475 400 l 25
EndSplineSet
EndChar

StartChar: F.init
Encoding: 155 -1 155
Width: 1000
Flags: HW
LayerCount: 2
Fore
SplineSet
525 400 m 25
 841.599609375 400 l 25
 841.599609375 200 l 25
 525 200 l 25
 525 400 l 25
475 400 m 25
 525 400 l 25
 525 0 l 25
 475 0 l 29
 475 400 l 25
EndSplineSet
EndChar

StartChar: G.init
Encoding: 156 -1 156
Width: 1000
Flags: HW
LayerCount: 2
Fore
SplineSet
525 400 m 25
 841.599609375 400 l 25
 841.599609375 200 l 25
 525 200 l 25
 525 400 l 25
475 400 m 25
 525 400 l 25
 525 0 l 25
 475 0 l 29
 475 400 l 25
EndSplineSet
EndChar

StartChar: H.init
Encoding: 157 -1 157
Width: 1000
Flags: HW
LayerCount: 2
Fore
SplineSet
525 400 m 25
 841.599609375 400 l 25
 841.599609375 200 l 25
 525 200 l 25
 525 400 l 25
475 400 m 25
 525 400 l 25
 525 0 l 25
 475 0 l 29
 475 400 l 25
EndSplineSet
EndChar

StartChar: Iacute.init
Encoding: 158 -1 158
Width: 1000
Flags: HW
LayerCount: 2
Fore
SplineSet
525 400 m 25
 841.599609375 400 l 25
 841.599609375 200 l 25
 525 200 l 25
 525 400 l 25
475 400 m 25
 525 400 l 25
 525 0 l 25
 475 0 l 29
 475 400 l 25
EndSplineSet
EndChar

StartChar: I.init
Encoding: 159 -1 159
Width: 1000
Flags: HW
LayerCount: 2
Fore
SplineSet
525 400 m 25
 841.599609375 400 l 25
 841.599609375 200 l 25
 525 200 l 25
 525 400 l 25
475 400 m 25
 525 400 l 25
 525 0 l 25
 475 0 l 29
 475 400 l 25
EndSplineSet
EndChar

StartChar: J.init
Encoding: 160 -1 160
Width: 1000
Flags: HW
LayerCount: 2
Fore
SplineSet
525 400 m 25
 841.599609375 400 l 25
 841.599609375 200 l 25
 525 200 l 25
 525 400 l 25
475 400 m 25
 525 400 l 25
 525 0 l 25
 475 0 l 29
 475 400 l 25
EndSplineSet
EndChar

StartChar: K.init
Encoding: 161 -1 161
Width: 1000
Flags: HW
LayerCount: 2
Fore
SplineSet
525 400 m 25
 841.599609375 400 l 25
 841.599609375 200 l 25
 525 200 l 25
 525 400 l 25
475 400 m 25
 525 400 l 25
 525 0 l 25
 475 0 l 29
 475 400 l 25
EndSplineSet
EndChar

StartChar: L.init
Encoding: 162 -1 162
Width: 1000
Flags: HW
LayerCount: 2
Fore
SplineSet
525 400 m 25
 841.599609375 400 l 25
 841.599609375 200 l 25
 525 200 l 25
 525 400 l 25
475 400 m 25
 525 400 l 25
 525 0 l 25
 475 0 l 29
 475 400 l 25
EndSplineSet
EndChar

StartChar: M.init
Encoding: 163 -1 163
Width: 1000
Flags: HW
LayerCount: 2
Fore
SplineSet
525 400 m 25
 841.599609375 400 l 25
 841.599609375 200 l 25
 525 200 l 25
 525 400 l 25
475 400 m 25
 525 400 l 25
 525 0 l 25
 475 0 l 29
 475 400 l 25
EndSplineSet
EndChar

StartChar: Eng.init
Encoding: 164 -1 164
Width: 1000
Flags: HW
LayerCount: 2
Fore
SplineSet
525 400 m 25
 841.599609375 400 l 25
 841.599609375 200 l 25
 525 200 l 25
 525 400 l 25
475 400 m 25
 525 400 l 25
 525 0 l 25
 475 0 l 29
 475 400 l 25
EndSplineSet
EndChar

StartChar: N.init
Encoding: 165 -1 165
Width: 1000
Flags: HW
LayerCount: 2
Fore
SplineSet
525 400 m 25
 841.599609375 400 l 25
 841.599609375 200 l 25
 525 200 l 25
 525 400 l 25
475 400 m 25
 525 400 l 25
 525 0 l 25
 475 0 l 29
 475 400 l 25
EndSplineSet
EndChar

StartChar: Oacute.init
Encoding: 166 -1 166
Width: 1000
Flags: HW
LayerCount: 2
Fore
SplineSet
525 400 m 25
 841.599609375 400 l 25
 841.599609375 200 l 25
 525 200 l 25
 525 400 l 25
475 400 m 25
 525 400 l 25
 525 0 l 25
 475 0 l 29
 475 400 l 25
EndSplineSet
EndChar

StartChar: O.init
Encoding: 167 -1 167
Width: 1000
Flags: HW
LayerCount: 2
Fore
SplineSet
525 400 m 25
 841.599609375 400 l 25
 841.599609375 200 l 25
 525 200 l 25
 525 400 l 25
475 400 m 25
 525 400 l 25
 525 0 l 25
 475 0 l 29
 475 400 l 25
EndSplineSet
EndChar

StartChar: P.init
Encoding: 168 -1 168
Width: 1000
Flags: HW
LayerCount: 2
Fore
SplineSet
525 400 m 25
 841.599609375 400 l 25
 841.599609375 200 l 25
 525 200 l 25
 525 400 l 25
475 400 m 25
 525 400 l 25
 525 0 l 25
 475 0 l 29
 475 400 l 25
EndSplineSet
EndChar

StartChar: R.init
Encoding: 169 -1 169
Width: 1000
Flags: HW
LayerCount: 2
Fore
SplineSet
525 400 m 25
 841.599609375 400 l 25
 841.599609375 200 l 25
 525 200 l 25
 525 400 l 25
475 400 m 25
 525 400 l 25
 525 0 l 25
 475 0 l 29
 475 400 l 25
EndSplineSet
EndChar

StartChar: Esh.init
Encoding: 170 -1 170
Width: 1000
Flags: HW
LayerCount: 2
Fore
SplineSet
525 400 m 25
 841.599609375 400 l 25
 841.599609375 200 l 25
 525 200 l 25
 525 400 l 25
475 400 m 25
 525 400 l 25
 525 0 l 25
 475 0 l 29
 475 400 l 25
EndSplineSet
EndChar

StartChar: S.init
Encoding: 171 -1 171
Width: 1000
Flags: HW
LayerCount: 2
Fore
SplineSet
525 400 m 25
 841.599609375 400 l 25
 841.599609375 200 l 25
 525 200 l 25
 525 400 l 25
475 400 m 25
 525 400 l 25
 525 0 l 25
 475 0 l 29
 475 400 l 25
EndSplineSet
EndChar

StartChar: Thorn.init
Encoding: 172 -1 172
Width: 1000
Flags: HW
LayerCount: 2
Fore
SplineSet
525 400 m 25
 841.599609375 400 l 25
 841.599609375 200 l 25
 525 200 l 25
 525 400 l 25
475 400 m 25
 525 400 l 25
 525 0 l 25
 475 0 l 29
 475 400 l 25
EndSplineSet
EndChar

StartChar: T.init
Encoding: 173 -1 173
Width: 1000
Flags: HW
LayerCount: 2
Fore
SplineSet
525 400 m 25
 841.599609375 400 l 25
 841.599609375 200 l 25
 525 200 l 25
 525 400 l 25
475 400 m 25
 525 400 l 25
 525 0 l 25
 475 0 l 29
 475 400 l 25
EndSplineSet
EndChar

StartChar: Udoubleacute.init
Encoding: 174 -1 174
Width: 1000
Flags: HW
LayerCount: 2
Fore
SplineSet
525 400 m 25
 841.599609375 400 l 25
 841.599609375 200 l 25
 525 200 l 25
 525 400 l 25
475 400 m 25
 525 400 l 25
 525 0 l 25
 475 0 l 29
 475 400 l 25
EndSplineSet
EndChar

StartChar: Uacute.init
Encoding: 175 -1 175
Width: 1000
Flags: HW
LayerCount: 2
Fore
SplineSet
525 400 m 25
 841.599609375 400 l 25
 841.599609375 200 l 25
 525 200 l 25
 525 400 l 25
475 400 m 25
 525 400 l 25
 525 0 l 25
 475 0 l 29
 475 400 l 25
EndSplineSet
EndChar

StartChar: U.init
Encoding: 176 -1 176
Width: 1000
Flags: HW
LayerCount: 2
Fore
SplineSet
525 400 m 25
 841.599609375 400 l 25
 841.599609375 200 l 25
 525 200 l 25
 525 400 l 25
475 400 m 25
 525 400 l 25
 525 0 l 25
 475 0 l 29
 475 400 l 25
EndSplineSet
EndChar

StartChar: V.init
Encoding: 177 -1 177
Width: 1000
Flags: HW
LayerCount: 2
Fore
SplineSet
525 400 m 25
 841.599609375 400 l 25
 841.599609375 200 l 25
 525 200 l 25
 525 400 l 25
475 400 m 25
 525 400 l 25
 525 0 l 25
 475 0 l 29
 475 400 l 25
EndSplineSet
EndChar

StartChar: W.init
Encoding: 178 -1 178
Width: 1000
Flags: HW
LayerCount: 2
Fore
SplineSet
525 400 m 25
 841.599609375 400 l 25
 841.599609375 200 l 25
 525 200 l 25
 525 400 l 25
475 400 m 25
 525 400 l 25
 525 0 l 25
 475 0 l 29
 475 400 l 25
EndSplineSet
EndChar

StartChar: Y.init
Encoding: 179 -1 179
Width: 1000
Flags: HW
LayerCount: 2
Fore
SplineSet
525 400 m 25
 841.599609375 400 l 25
 841.599609375 200 l 25
 525 200 l 25
 525 400 l 25
475 400 m 25
 525 400 l 25
 525 0 l 25
 475 0 l 29
 475 400 l 25
EndSplineSet
EndChar

StartChar: Zhed.init
Encoding: 180 -1 180
Width: 1000
Flags: HW
LayerCount: 2
Fore
SplineSet
525 400 m 25
 841.599609375 400 l 25
 841.599609375 200 l 25
 525 200 l 25
 525 400 l 25
475 400 m 25
 525 400 l 25
 525 0 l 25
 475 0 l 29
 475 400 l 25
EndSplineSet
EndChar

StartChar: Z.init
Encoding: 181 -1 181
Width: 1000
Flags: HW
LayerCount: 2
Fore
SplineSet
525 400 m 25
 841.599609375 400 l 25
 841.599609375 200 l 25
 525 200 l 25
 525 400 l 25
475 400 m 25
 525 400 l 25
 525 0 l 25
 475 0 l 29
 475 400 l 25
EndSplineSet
EndChar

StartChar: A.fina
Encoding: 182 -1 182
Width: 1000
Flags: HW
LayerCount: 2
Fore
SplineSet
158.299804688 400 m 25
 475 400 l 25
 475 200 l 25
 158.299804688 200 l 25
 158.299804688 400 l 25
475 600 m 25
 525 600 l 25
 525 200 l 25
 475 200 l 29
 475 600 l 25
EndSplineSet
EndChar

StartChar: B.fina
Encoding: 183 -1 183
Width: 1000
Flags: HW
LayerCount: 2
Fore
SplineSet
158.299804688 400 m 25
 475 400 l 25
 475 200 l 25
 158.299804688 200 l 25
 158.299804688 400 l 25
475 600 m 25
 525 600 l 25
 525 200 l 25
 475 200 l 29
 475 600 l 25
EndSplineSet
EndChar

StartChar: C.fina
Encoding: 184 -1 184
Width: 1000
Flags: HW
LayerCount: 2
Fore
SplineSet
158.299804688 400 m 25
 475 400 l 25
 475 200 l 25
 158.299804688 200 l 25
 158.299804688 400 l 25
475 600 m 25
 525 600 l 25
 525 200 l 25
 475 200 l 29
 475 600 l 25
EndSplineSet
EndChar

StartChar: Edh.fina
Encoding: 185 -1 185
Width: 1000
Flags: HW
LayerCount: 2
Fore
SplineSet
158.299804688 400 m 25
 475 400 l 25
 475 200 l 25
 158.299804688 200 l 25
 158.299804688 400 l 25
475 600 m 25
 525 600 l 25
 525 200 l 25
 475 200 l 29
 475 600 l 25
EndSplineSet
EndChar

StartChar: D.fina
Encoding: 186 -1 186
Width: 1000
Flags: HW
LayerCount: 2
Fore
SplineSet
158.299804688 400 m 25
 475 400 l 25
 475 200 l 25
 158.299804688 200 l 25
 158.299804688 400 l 25
475 600 m 25
 525 600 l 25
 525 200 l 25
 475 200 l 29
 475 600 l 25
EndSplineSet
EndChar

StartChar: Eacute.fina
Encoding: 187 -1 187
Width: 1000
Flags: HW
LayerCount: 2
Fore
SplineSet
158.299804688 400 m 25
 475 400 l 25
 475 200 l 25
 158.299804688 200 l 25
 158.299804688 400 l 25
475 600 m 25
 525 600 l 25
 525 200 l 25
 475 200 l 29
 475 600 l 25
EndSplineSet
EndChar

StartChar: E.fina
Encoding: 188 -1 188
Width: 1000
Flags: HW
LayerCount: 2
Fore
SplineSet
158.299804688 400 m 25
 475 400 l 25
 475 200 l 25
 158.299804688 200 l 25
 158.299804688 400 l 25
475 600 m 25
 525 600 l 25
 525 200 l 25
 475 200 l 29
 475 600 l 25
EndSplineSet
EndChar

StartChar: F.fina
Encoding: 189 -1 189
Width: 1000
Flags: HW
LayerCount: 2
Fore
SplineSet
158.299804688 400 m 25
 475 400 l 25
 475 200 l 25
 158.299804688 200 l 25
 158.299804688 400 l 25
475 600 m 25
 525 600 l 25
 525 200 l 25
 475 200 l 29
 475 600 l 25
EndSplineSet
EndChar

StartChar: G.fina
Encoding: 190 -1 190
Width: 1000
Flags: HW
LayerCount: 2
Fore
SplineSet
158.299804688 400 m 25
 475 400 l 25
 475 200 l 25
 158.299804688 200 l 25
 158.299804688 400 l 25
475 600 m 25
 525 600 l 25
 525 200 l 25
 475 200 l 29
 475 600 l 25
EndSplineSet
EndChar

StartChar: H.fina
Encoding: 191 -1 191
Width: 1000
Flags: HW
LayerCount: 2
Fore
SplineSet
158.299804688 400 m 25
 475 400 l 25
 475 200 l 25
 158.299804688 200 l 25
 158.299804688 400 l 25
475 600 m 25
 525 600 l 25
 525 200 l 25
 475 200 l 29
 475 600 l 25
EndSplineSet
EndChar

StartChar: Iacute.fina
Encoding: 192 -1 192
Width: 1000
Flags: HW
LayerCount: 2
Fore
SplineSet
158.299804688 400 m 25
 475 400 l 25
 475 200 l 25
 158.299804688 200 l 25
 158.299804688 400 l 25
475 600 m 25
 525 600 l 25
 525 200 l 25
 475 200 l 29
 475 600 l 25
EndSplineSet
EndChar

StartChar: I.fina
Encoding: 193 -1 193
Width: 1000
Flags: HW
LayerCount: 2
Fore
SplineSet
158.299804688 400 m 25
 475 400 l 25
 475 200 l 25
 158.299804688 200 l 25
 158.299804688 400 l 25
475 600 m 25
 525 600 l 25
 525 200 l 25
 475 200 l 29
 475 600 l 25
EndSplineSet
EndChar

StartChar: J.fina
Encoding: 194 -1 194
Width: 1000
Flags: HW
LayerCount: 2
Fore
SplineSet
158.299804688 400 m 25
 475 400 l 25
 475 200 l 25
 158.299804688 200 l 25
 158.299804688 400 l 25
475 600 m 25
 525 600 l 25
 525 200 l 25
 475 200 l 29
 475 600 l 25
EndSplineSet
EndChar

StartChar: K.fina
Encoding: 195 -1 195
Width: 1000
Flags: HW
LayerCount: 2
Fore
SplineSet
158.299804688 400 m 25
 475 400 l 25
 475 200 l 25
 158.299804688 200 l 25
 158.299804688 400 l 25
475 600 m 25
 525 600 l 25
 525 200 l 25
 475 200 l 29
 475 600 l 25
EndSplineSet
EndChar

StartChar: L.fina
Encoding: 196 -1 196
Width: 1000
Flags: HW
LayerCount: 2
Fore
SplineSet
158.299804688 400 m 25
 475 400 l 25
 475 200 l 25
 158.299804688 200 l 25
 158.299804688 400 l 25
475 600 m 25
 525 600 l 25
 525 200 l 25
 475 200 l 29
 475 600 l 25
EndSplineSet
EndChar

StartChar: M.fina
Encoding: 197 -1 197
Width: 1000
Flags: HW
LayerCount: 2
Fore
SplineSet
158.299804688 400 m 25
 475 400 l 25
 475 200 l 25
 158.299804688 200 l 25
 158.299804688 400 l 25
475 600 m 25
 525 600 l 25
 525 200 l 25
 475 200 l 29
 475 600 l 25
EndSplineSet
EndChar

StartChar: Eng.fina
Encoding: 198 -1 198
Width: 1000
Flags: HW
LayerCount: 2
Fore
SplineSet
158.299804688 400 m 25
 475 400 l 25
 475 200 l 25
 158.299804688 200 l 25
 158.299804688 400 l 25
475 600 m 25
 525 600 l 25
 525 200 l 25
 475 200 l 29
 475 600 l 25
EndSplineSet
EndChar

StartChar: N.fina
Encoding: 199 -1 199
Width: 1000
Flags: HW
LayerCount: 2
Fore
SplineSet
158.299804688 400 m 25
 475 400 l 25
 475 200 l 25
 158.299804688 200 l 25
 158.299804688 400 l 25
475 600 m 25
 525 600 l 25
 525 200 l 25
 475 200 l 29
 475 600 l 25
EndSplineSet
EndChar

StartChar: Oacute.fina
Encoding: 200 -1 200
Width: 1000
Flags: HW
LayerCount: 2
Fore
SplineSet
158.299804688 400 m 25
 475 400 l 25
 475 200 l 25
 158.299804688 200 l 25
 158.299804688 400 l 25
475 600 m 25
 525 600 l 25
 525 200 l 25
 475 200 l 29
 475 600 l 25
EndSplineSet
EndChar

StartChar: O.fina
Encoding: 201 -1 201
Width: 1000
Flags: HW
LayerCount: 2
Fore
SplineSet
158.299804688 400 m 25
 475 400 l 25
 475 200 l 25
 158.299804688 200 l 25
 158.299804688 400 l 25
475 600 m 25
 525 600 l 25
 525 200 l 25
 475 200 l 29
 475 600 l 25
EndSplineSet
EndChar

StartChar: P.fina
Encoding: 202 -1 202
Width: 1000
Flags: HW
LayerCount: 2
Fore
SplineSet
158.299804688 400 m 25
 475 400 l 25
 475 200 l 25
 158.299804688 200 l 25
 158.299804688 400 l 25
475 600 m 25
 525 600 l 25
 525 200 l 25
 475 200 l 29
 475 600 l 25
EndSplineSet
EndChar

StartChar: R.fina
Encoding: 203 -1 203
Width: 1000
Flags: HW
LayerCount: 2
Fore
SplineSet
158.299804688 400 m 25
 475 400 l 25
 475 200 l 25
 158.299804688 200 l 25
 158.299804688 400 l 25
475 600 m 25
 525 600 l 25
 525 200 l 25
 475 200 l 29
 475 600 l 25
EndSplineSet
EndChar

StartChar: Esh.fina
Encoding: 204 -1 204
Width: 1000
Flags: HW
LayerCount: 2
Fore
SplineSet
158.299804688 400 m 25
 475 400 l 25
 475 200 l 25
 158.299804688 200 l 25
 158.299804688 400 l 25
475 600 m 25
 525 600 l 25
 525 200 l 25
 475 200 l 29
 475 600 l 25
EndSplineSet
EndChar

StartChar: S.fina
Encoding: 205 -1 205
Width: 1000
Flags: HW
LayerCount: 2
Fore
SplineSet
158.299804688 400 m 25
 475 400 l 25
 475 200 l 25
 158.299804688 200 l 25
 158.299804688 400 l 25
475 600 m 25
 525 600 l 25
 525 200 l 25
 475 200 l 29
 475 600 l 25
EndSplineSet
EndChar

StartChar: Thorn.fina
Encoding: 206 -1 206
Width: 1000
Flags: HW
LayerCount: 2
Fore
SplineSet
158.299804688 400 m 25
 475 400 l 25
 475 200 l 25
 158.299804688 200 l 25
 158.299804688 400 l 25
475 600 m 25
 525 600 l 25
 525 200 l 25
 475 200 l 29
 475 600 l 25
EndSplineSet
EndChar

StartChar: T.fina
Encoding: 207 -1 207
Width: 1000
Flags: HW
LayerCount: 2
Fore
SplineSet
158.299804688 400 m 25
 475 400 l 25
 475 200 l 25
 158.299804688 200 l 25
 158.299804688 400 l 25
475 600 m 25
 525 600 l 25
 525 200 l 25
 475 200 l 29
 475 600 l 25
EndSplineSet
EndChar

StartChar: Udoubleacute.fina
Encoding: 208 -1 208
Width: 1000
Flags: HW
LayerCount: 2
Fore
SplineSet
158.299804688 400 m 25
 475 400 l 25
 475 200 l 25
 158.299804688 200 l 25
 158.299804688 400 l 25
475 600 m 25
 525 600 l 25
 525 200 l 25
 475 200 l 29
 475 600 l 25
EndSplineSet
EndChar

StartChar: Uacute.fina
Encoding: 209 -1 209
Width: 1000
Flags: HW
LayerCount: 2
Fore
SplineSet
158.299804688 400 m 25
 475 400 l 25
 475 200 l 25
 158.299804688 200 l 25
 158.299804688 400 l 25
475 600 m 25
 525 600 l 25
 525 200 l 25
 475 200 l 29
 475 600 l 25
EndSplineSet
EndChar

StartChar: U.fina
Encoding: 210 -1 210
Width: 1000
Flags: HW
LayerCount: 2
Fore
SplineSet
158.299804688 400 m 25
 475 400 l 25
 475 200 l 25
 158.299804688 200 l 25
 158.299804688 400 l 25
475 600 m 25
 525 600 l 25
 525 200 l 25
 475 200 l 29
 475 600 l 25
EndSplineSet
EndChar

StartChar: V.fina
Encoding: 211 -1 211
Width: 1000
Flags: HW
LayerCount: 2
Fore
SplineSet
158.299804688 400 m 25
 475 400 l 25
 475 200 l 25
 158.299804688 200 l 25
 158.299804688 400 l 25
475 600 m 25
 525 600 l 25
 525 200 l 25
 475 200 l 29
 475 600 l 25
EndSplineSet
EndChar

StartChar: W.fina
Encoding: 212 -1 212
Width: 1000
Flags: HW
LayerCount: 2
Fore
SplineSet
158.299804688 400 m 25
 475 400 l 25
 475 200 l 25
 158.299804688 200 l 25
 158.299804688 400 l 25
475 600 m 25
 525 600 l 25
 525 200 l 25
 475 200 l 29
 475 600 l 25
EndSplineSet
EndChar

StartChar: Y.fina
Encoding: 213 -1 213
Width: 1000
Flags: HW
LayerCount: 2
Fore
SplineSet
158.299804688 400 m 25
 475 400 l 25
 475 200 l 25
 158.299804688 200 l 25
 158.299804688 400 l 25
475 600 m 25
 525 600 l 25
 525 200 l 25
 475 200 l 29
 475 600 l 25
EndSplineSet
EndChar

StartChar: Zhed.fina
Encoding: 214 -1 214
Width: 1000
Flags: HW
LayerCount: 2
Fore
SplineSet
158.299804688 400 m 25
 475 400 l 25
 475 200 l 25
 158.299804688 200 l 25
 158.299804688 400 l 25
475 600 m 25
 525 600 l 25
 525 200 l 25
 475 200 l 29
 475 600 l 25
EndSplineSet
EndChar

StartChar: Z.fina
Encoding: 215 -1 215
Width: 1000
Flags: HW
LayerCount: 2
Fore
SplineSet
158.299804688 400 m 25
 475 400 l 25
 475 200 l 25
 158.299804688 200 l 25
 158.299804688 400 l 25
475 600 m 25
 525 600 l 25
 525 200 l 25
 475 200 l 29
 475 600 l 25
EndSplineSet
EndChar
